<mxfile host="app.diagrams.net" modified="2021-04-04T08:16:03.888Z" agent="5.0 (Windows NT 10.0; Win64; x64) AppleWebKit/537.36 (KHTML, like Gecko) Chrome/89.0.4389.114 Safari/537.36" etag="zbE-XUdflRYCqcP40-jc" version="14.4.2" type="github">
  <diagram id="CO_8MMSPyCXiIXAshX2_" name="Page-1">
    <mxGraphModel dx="1038" dy="548" grid="1" gridSize="10" guides="1" tooltips="1" connect="1" arrows="1" fold="1" page="1" pageScale="1" pageWidth="827" pageHeight="1169" math="0" shadow="0">
      <root>
        <mxCell id="0" />
        <mxCell id="1" parent="0" />
        <mxCell id="_9zKEK0Ki8COJIGo9xSf-22" value="Actor" style="shape=umlActor;verticalLabelPosition=bottom;verticalAlign=top;html=1;outlineConnect=0;" parent="1" vertex="1">
          <mxGeometry x="140" y="290" width="30" height="60" as="geometry" />
        </mxCell>
        <mxCell id="_9zKEK0Ki8COJIGo9xSf-25" value="" style="rounded=0;whiteSpace=wrap;html=1;" parent="1" vertex="1">
          <mxGeometry x="370" y="40" width="440" height="550" as="geometry" />
        </mxCell>
        <mxCell id="_9zKEK0Ki8COJIGo9xSf-36" style="edgeStyle=orthogonalEdgeStyle;rounded=0;orthogonalLoop=1;jettySize=auto;html=1;endArrow=open;endFill=0;dashed=1;" parent="1" source="_9zKEK0Ki8COJIGo9xSf-26" target="_9zKEK0Ki8COJIGo9xSf-30" edge="1">
          <mxGeometry relative="1" as="geometry">
            <Array as="points">
              <mxPoint x="680" y="205" />
            </Array>
          </mxGeometry>
        </mxCell>
        <mxCell id="_9zKEK0Ki8COJIGo9xSf-26" value="Ingresa el código en lisp" style="ellipse;whiteSpace=wrap;html=1;" parent="1" vertex="1">
          <mxGeometry x="540" y="100" width="110" height="50" as="geometry" />
        </mxCell>
        <mxCell id="_9zKEK0Ki8COJIGo9xSf-27" value="Intérprete de Lisp" style="text;html=1;strokeColor=none;fillColor=none;align=center;verticalAlign=middle;whiteSpace=wrap;rounded=0;" parent="1" vertex="1">
          <mxGeometry x="589" y="50" width="40" height="20" as="geometry" />
        </mxCell>
        <mxCell id="_9zKEK0Ki8COJIGo9xSf-40" style="edgeStyle=orthogonalEdgeStyle;rounded=0;orthogonalLoop=1;jettySize=auto;html=1;endArrow=open;endFill=0;dashed=1;entryX=0.5;entryY=0;entryDx=0;entryDy=0;" parent="1" source="_9zKEK0Ki8COJIGo9xSf-30" target="E6GWjSgV6tuzKkOOigNC-2" edge="1">
          <mxGeometry relative="1" as="geometry" />
        </mxCell>
        <mxCell id="_9zKEK0Ki8COJIGo9xSf-30" value="Balanceo de paréntesis" style="ellipse;whiteSpace=wrap;html=1;" parent="1" vertex="1">
          <mxGeometry x="400" y="170" width="115.63" height="50" as="geometry" />
        </mxCell>
        <mxCell id="_9zKEK0Ki8COJIGo9xSf-63" style="edgeStyle=orthogonalEdgeStyle;rounded=0;orthogonalLoop=1;jettySize=auto;html=1;entryX=1;entryY=0.5;entryDx=0;entryDy=0;endArrow=open;endFill=0;" parent="1" source="_9zKEK0Ki8COJIGo9xSf-31" target="_9zKEK0Ki8COJIGo9xSf-56" edge="1">
          <mxGeometry relative="1" as="geometry">
            <Array as="points">
              <mxPoint x="458" y="430" />
              <mxPoint x="465" y="430" />
              <mxPoint x="465" y="485" />
            </Array>
          </mxGeometry>
        </mxCell>
        <mxCell id="_9zKEK0Ki8COJIGo9xSf-31" value="Identificar cada operación" style="ellipse;whiteSpace=wrap;html=1;" parent="1" vertex="1">
          <mxGeometry x="400" y="350" width="115.63" height="50" as="geometry" />
        </mxCell>
        <mxCell id="_9zKEK0Ki8COJIGo9xSf-43" style="edgeStyle=orthogonalEdgeStyle;rounded=0;orthogonalLoop=1;jettySize=auto;html=1;exitX=0;exitY=0.5;exitDx=0;exitDy=0;entryX=1;entryY=0.5;entryDx=0;entryDy=0;endArrow=block;endFill=0;" parent="1" source="_9zKEK0Ki8COJIGo9xSf-32" target="_9zKEK0Ki8COJIGo9xSf-31" edge="1">
          <mxGeometry relative="1" as="geometry" />
        </mxCell>
        <mxCell id="_9zKEK0Ki8COJIGo9xSf-32" value="Operaciones ariméticas" style="ellipse;whiteSpace=wrap;html=1;" parent="1" vertex="1">
          <mxGeometry x="560" y="260" width="90" height="30" as="geometry" />
        </mxCell>
        <mxCell id="_9zKEK0Ki8COJIGo9xSf-44" style="edgeStyle=orthogonalEdgeStyle;rounded=0;orthogonalLoop=1;jettySize=auto;html=1;endArrow=block;endFill=0;" parent="1" source="_9zKEK0Ki8COJIGo9xSf-33" target="_9zKEK0Ki8COJIGo9xSf-31" edge="1">
          <mxGeometry relative="1" as="geometry">
            <Array as="points">
              <mxPoint x="540" y="240" />
              <mxPoint x="540" y="375" />
            </Array>
          </mxGeometry>
        </mxCell>
        <mxCell id="_9zKEK0Ki8COJIGo9xSf-33" value="Quote" style="ellipse;whiteSpace=wrap;html=1;" parent="1" vertex="1">
          <mxGeometry x="560" y="220" width="90" height="30" as="geometry" />
        </mxCell>
        <mxCell id="E6GWjSgV6tuzKkOOigNC-11" style="edgeStyle=orthogonalEdgeStyle;rounded=0;orthogonalLoop=1;jettySize=auto;html=1;entryX=1;entryY=0.5;entryDx=0;entryDy=0;endArrow=block;endFill=0;" parent="1" source="_9zKEK0Ki8COJIGo9xSf-34" target="_9zKEK0Ki8COJIGo9xSf-31" edge="1">
          <mxGeometry relative="1" as="geometry" />
        </mxCell>
        <mxCell id="_9zKEK0Ki8COJIGo9xSf-34" value="Setq" style="ellipse;whiteSpace=wrap;html=1;" parent="1" vertex="1">
          <mxGeometry x="560" y="300" width="90" height="30" as="geometry" />
        </mxCell>
        <mxCell id="_9zKEK0Ki8COJIGo9xSf-52" style="edgeStyle=orthogonalEdgeStyle;rounded=0;orthogonalLoop=1;jettySize=auto;html=1;endArrow=none;endFill=0;" parent="1" source="_9zKEK0Ki8COJIGo9xSf-35" target="_9zKEK0Ki8COJIGo9xSf-31" edge="1">
          <mxGeometry relative="1" as="geometry" />
        </mxCell>
        <mxCell id="_9zKEK0Ki8COJIGo9xSf-35" value="Defun" style="ellipse;whiteSpace=wrap;html=1;" parent="1" vertex="1">
          <mxGeometry x="560" y="340" width="90" height="30" as="geometry" />
        </mxCell>
        <mxCell id="_9zKEK0Ki8COJIGo9xSf-55" style="edgeStyle=orthogonalEdgeStyle;rounded=0;orthogonalLoop=1;jettySize=auto;html=1;endArrow=none;endFill=0;" parent="1" source="_9zKEK0Ki8COJIGo9xSf-54" target="_9zKEK0Ki8COJIGo9xSf-22" edge="1">
          <mxGeometry relative="1" as="geometry" />
        </mxCell>
        <mxCell id="_9zKEK0Ki8COJIGo9xSf-54" value="Salir" style="ellipse;whiteSpace=wrap;html=1;" parent="1" vertex="1">
          <mxGeometry x="410.37" y="535" width="110" height="50" as="geometry" />
        </mxCell>
        <mxCell id="_9zKEK0Ki8COJIGo9xSf-60" style="edgeStyle=orthogonalEdgeStyle;rounded=0;orthogonalLoop=1;jettySize=auto;html=1;endArrow=none;endFill=0;" parent="1" source="_9zKEK0Ki8COJIGo9xSf-56" target="_9zKEK0Ki8COJIGo9xSf-22" edge="1">
          <mxGeometry relative="1" as="geometry" />
        </mxCell>
        <mxCell id="_9zKEK0Ki8COJIGo9xSf-56" value="Visualizar resultado" style="ellipse;whiteSpace=wrap;html=1;" parent="1" vertex="1">
          <mxGeometry x="417.36999999999995" y="460" width="96" height="50" as="geometry" />
        </mxCell>
        <mxCell id="_9zKEK0Ki8COJIGo9xSf-66" style="edgeStyle=orthogonalEdgeStyle;rounded=0;orthogonalLoop=1;jettySize=auto;html=1;endArrow=none;endFill=0;" parent="1" source="_9zKEK0Ki8COJIGo9xSf-65" target="_9zKEK0Ki8COJIGo9xSf-22" edge="1">
          <mxGeometry relative="1" as="geometry" />
        </mxCell>
        <mxCell id="_9zKEK0Ki8COJIGo9xSf-67" style="edgeStyle=orthogonalEdgeStyle;rounded=0;orthogonalLoop=1;jettySize=auto;html=1;endArrow=classic;endFill=1;" parent="1" source="_9zKEK0Ki8COJIGo9xSf-65" target="_9zKEK0Ki8COJIGo9xSf-26" edge="1">
          <mxGeometry relative="1" as="geometry" />
        </mxCell>
        <mxCell id="_9zKEK0Ki8COJIGo9xSf-65" value="Realizar operación arimética" style="ellipse;whiteSpace=wrap;html=1;" parent="1" vertex="1">
          <mxGeometry x="400" y="100" width="110" height="50" as="geometry" />
        </mxCell>
        <mxCell id="E6GWjSgV6tuzKkOOigNC-3" style="edgeStyle=orthogonalEdgeStyle;rounded=0;orthogonalLoop=1;jettySize=auto;html=1;strokeColor=none;dashed=1;" parent="1" source="E6GWjSgV6tuzKkOOigNC-2" target="_9zKEK0Ki8COJIGo9xSf-31" edge="1">
          <mxGeometry relative="1" as="geometry" />
        </mxCell>
        <mxCell id="E6GWjSgV6tuzKkOOigNC-4" style="edgeStyle=orthogonalEdgeStyle;rounded=0;orthogonalLoop=1;jettySize=auto;html=1;dashed=1;" parent="1" source="E6GWjSgV6tuzKkOOigNC-2" target="_9zKEK0Ki8COJIGo9xSf-31" edge="1">
          <mxGeometry relative="1" as="geometry" />
        </mxCell>
        <mxCell id="E6GWjSgV6tuzKkOOigNC-2" value="Separa el código en Strings" style="ellipse;whiteSpace=wrap;html=1;" parent="1" vertex="1">
          <mxGeometry x="400" y="260" width="115.63" height="50" as="geometry" />
        </mxCell>
        <mxCell id="E6GWjSgV6tuzKkOOigNC-34" style="edgeStyle=orthogonalEdgeStyle;rounded=0;orthogonalLoop=1;jettySize=auto;html=1;entryX=1;entryY=0.5;entryDx=0;entryDy=0;endArrow=block;endFill=0;" parent="1" source="E6GWjSgV6tuzKkOOigNC-6" target="_9zKEK0Ki8COJIGo9xSf-31" edge="1">
          <mxGeometry relative="1" as="geometry">
            <Array as="points">
              <mxPoint x="536" y="435" />
              <mxPoint x="536" y="375" />
            </Array>
          </mxGeometry>
        </mxCell>
        <mxCell id="E6GWjSgV6tuzKkOOigNC-6" value="cond" style="ellipse;whiteSpace=wrap;html=1;" parent="1" vertex="1">
          <mxGeometry x="550" y="420" width="90" height="30" as="geometry" />
        </mxCell>
        <mxCell id="E6GWjSgV6tuzKkOOigNC-12" style="edgeStyle=orthogonalEdgeStyle;rounded=0;orthogonalLoop=1;jettySize=auto;html=1;entryX=1;entryY=0.5;entryDx=0;entryDy=0;endArrow=block;endFill=0;" parent="1" source="E6GWjSgV6tuzKkOOigNC-7" target="_9zKEK0Ki8COJIGo9xSf-31" edge="1">
          <mxGeometry relative="1" as="geometry" />
        </mxCell>
        <mxCell id="E6GWjSgV6tuzKkOOigNC-7" value="Predicados" style="ellipse;whiteSpace=wrap;html=1;" parent="1" vertex="1">
          <mxGeometry x="560" y="380" width="90" height="30" as="geometry" />
        </mxCell>
        <mxCell id="E6GWjSgV6tuzKkOOigNC-33" style="edgeStyle=orthogonalEdgeStyle;rounded=0;orthogonalLoop=1;jettySize=auto;html=1;exitX=0;exitY=0.5;exitDx=0;exitDy=0;entryX=1;entryY=0.5;entryDx=0;entryDy=0;endArrow=block;endFill=0;" parent="1" source="E6GWjSgV6tuzKkOOigNC-20" target="_9zKEK0Ki8COJIGo9xSf-32" edge="1">
          <mxGeometry relative="1" as="geometry" />
        </mxCell>
        <mxCell id="E6GWjSgV6tuzKkOOigNC-20" value="suma" style="ellipse;whiteSpace=wrap;html=1;" parent="1" vertex="1">
          <mxGeometry x="690" y="200" width="90" height="30" as="geometry" />
        </mxCell>
        <mxCell id="E6GWjSgV6tuzKkOOigNC-31" style="edgeStyle=orthogonalEdgeStyle;rounded=0;orthogonalLoop=1;jettySize=auto;html=1;entryX=1;entryY=0.5;entryDx=0;entryDy=0;endArrow=block;endFill=0;" parent="1" source="E6GWjSgV6tuzKkOOigNC-21" target="_9zKEK0Ki8COJIGo9xSf-32" edge="1">
          <mxGeometry relative="1" as="geometry" />
        </mxCell>
        <mxCell id="E6GWjSgV6tuzKkOOigNC-21" value="multiplicación" style="ellipse;whiteSpace=wrap;html=1;" parent="1" vertex="1">
          <mxGeometry x="690" y="280" width="90" height="30" as="geometry" />
        </mxCell>
        <mxCell id="E6GWjSgV6tuzKkOOigNC-28" style="edgeStyle=orthogonalEdgeStyle;rounded=0;orthogonalLoop=1;jettySize=auto;html=1;entryX=1;entryY=0.5;entryDx=0;entryDy=0;endArrow=block;endFill=0;" parent="1" source="E6GWjSgV6tuzKkOOigNC-22" target="_9zKEK0Ki8COJIGo9xSf-32" edge="1">
          <mxGeometry relative="1" as="geometry" />
        </mxCell>
        <mxCell id="E6GWjSgV6tuzKkOOigNC-22" value="división" style="ellipse;whiteSpace=wrap;html=1;" parent="1" vertex="1">
          <mxGeometry x="690" y="320" width="90" height="30" as="geometry" />
        </mxCell>
        <mxCell id="E6GWjSgV6tuzKkOOigNC-32" style="edgeStyle=orthogonalEdgeStyle;rounded=0;orthogonalLoop=1;jettySize=auto;html=1;exitX=0;exitY=0.5;exitDx=0;exitDy=0;endArrow=block;endFill=0;" parent="1" source="E6GWjSgV6tuzKkOOigNC-23" target="_9zKEK0Ki8COJIGo9xSf-32" edge="1">
          <mxGeometry relative="1" as="geometry" />
        </mxCell>
        <mxCell id="E6GWjSgV6tuzKkOOigNC-23" value="resta" style="ellipse;whiteSpace=wrap;html=1;" parent="1" vertex="1">
          <mxGeometry x="690" y="240" width="90" height="30" as="geometry" />
        </mxCell>
        <mxCell id="E6GWjSgV6tuzKkOOigNC-42" style="edgeStyle=orthogonalEdgeStyle;rounded=0;orthogonalLoop=1;jettySize=auto;html=1;endArrow=block;endFill=0;" parent="1" source="E6GWjSgV6tuzKkOOigNC-35" target="E6GWjSgV6tuzKkOOigNC-7" edge="1">
          <mxGeometry relative="1" as="geometry">
            <Array as="points">
              <mxPoint x="725" y="390" />
            </Array>
          </mxGeometry>
        </mxCell>
        <mxCell id="E6GWjSgV6tuzKkOOigNC-35" value="atom" style="ellipse;whiteSpace=wrap;html=1;" parent="1" vertex="1">
          <mxGeometry x="680" y="350" width="90" height="30" as="geometry" />
        </mxCell>
        <mxCell id="E6GWjSgV6tuzKkOOigNC-43" style="edgeStyle=orthogonalEdgeStyle;rounded=0;orthogonalLoop=1;jettySize=auto;html=1;endArrow=block;endFill=0;" parent="1" source="E6GWjSgV6tuzKkOOigNC-36" edge="1">
          <mxGeometry relative="1" as="geometry">
            <mxPoint x="650" y="390" as="targetPoint" />
            <Array as="points">
              <mxPoint x="670" y="425" />
              <mxPoint x="670" y="390" />
            </Array>
          </mxGeometry>
        </mxCell>
        <mxCell id="E6GWjSgV6tuzKkOOigNC-36" value="list" style="ellipse;whiteSpace=wrap;html=1;" parent="1" vertex="1">
          <mxGeometry x="680" y="400" width="90" height="30" as="geometry" />
        </mxCell>
        <mxCell id="E6GWjSgV6tuzKkOOigNC-40" style="edgeStyle=orthogonalEdgeStyle;rounded=0;orthogonalLoop=1;jettySize=auto;html=1;endArrow=block;endFill=0;" parent="1" source="E6GWjSgV6tuzKkOOigNC-37" edge="1">
          <mxGeometry relative="1" as="geometry">
            <mxPoint x="650" y="390" as="targetPoint" />
            <Array as="points">
              <mxPoint x="670" y="465" />
              <mxPoint x="670" y="390" />
            </Array>
          </mxGeometry>
        </mxCell>
        <mxCell id="E6GWjSgV6tuzKkOOigNC-37" value="equal" style="ellipse;whiteSpace=wrap;html=1;" parent="1" vertex="1">
          <mxGeometry x="680" y="450" width="90" height="30" as="geometry" />
        </mxCell>
        <mxCell id="E6GWjSgV6tuzKkOOigNC-44" style="edgeStyle=orthogonalEdgeStyle;rounded=0;orthogonalLoop=1;jettySize=auto;html=1;endArrow=block;endFill=0;" parent="1" source="E6GWjSgV6tuzKkOOigNC-38" edge="1">
          <mxGeometry relative="1" as="geometry">
            <mxPoint x="650" y="390" as="targetPoint" />
            <Array as="points">
              <mxPoint x="670" y="505" />
              <mxPoint x="670" y="390" />
            </Array>
          </mxGeometry>
        </mxCell>
        <mxCell id="E6GWjSgV6tuzKkOOigNC-38" value="&amp;lt; &amp;gt;" style="ellipse;whiteSpace=wrap;html=1;" parent="1" vertex="1">
          <mxGeometry x="680" y="490" width="90" height="30" as="geometry" />
        </mxCell>
        <mxCell id="E6GWjSgV6tuzKkOOigNC-45" value="Elisa Samayoa&lt;br&gt;Juan Andrés Galicia&lt;br&gt;Jonathan Espinoza" style="text;html=1;strokeColor=none;fillColor=none;align=center;verticalAlign=middle;whiteSpace=wrap;rounded=0;" parent="1" vertex="1">
          <mxGeometry x="10" y="20" width="200" height="20" as="geometry" />
        </mxCell>
      </root>
    </mxGraphModel>
  </diagram>
</mxfile>
